<svg width="12" height="13" viewBox="0 0 12 13" fill="none" xmlns="http://www.w3.org/2000/svg">
<path d="M5.99583 9.6875C5.89583 9.6875 5.80208 9.67014 5.71458 9.63542C5.62708 9.60069 5.54861 9.54861 5.47917 9.47917L2.52083 6.52083C2.36806 6.36932 2.29514 6.19255 2.30208 5.99052C2.30903 5.78851 2.38557 5.61111 2.53171 5.45833C2.69113 5.30556 2.87153 5.22917 3.07292 5.22917C3.27431 5.22917 3.45139 5.30556 3.60417 5.45833L5.25 7.125V0.75C5.25 0.5375 5.32145 0.359375 5.46435 0.215624C5.60727 0.0718745 5.78435 0 5.9956 0C6.20687 0 6.38542 0.0718745 6.53125 0.215624C6.67708 0.359375 6.75 0.5375 6.75 0.75V7.125L8.41667 5.45833C8.56482 5.30556 8.74074 5.23264 8.94444 5.23958C9.14815 5.24653 9.32971 5.32639 9.48913 5.47917C9.63527 5.63194 9.70833 5.80903 9.70833 6.01042C9.70833 6.21181 9.63194 6.38889 9.47917 6.54167L6.52083 9.47917C6.44583 9.54861 6.36458 9.60069 6.27708 9.63542C6.18958 9.67014 6.09583 9.6875 5.99583 9.6875ZM1.4941 13C1.08137 13 0.729167 12.8531 0.4375 12.5594C0.145833 12.2656 0 11.9125 0 11.5V10.75C0 10.5375 0.0714514 10.3594 0.214354 10.2156C0.357271 10.0719 0.534354 10 0.745604 10C0.956868 10 1.13542 10.0719 1.28125 10.2156C1.42708 10.3594 1.5 10.5375 1.5 10.75V11.5H10.5V10.75C10.5 10.5375 10.5715 10.3594 10.7144 10.2156C10.8573 10.0719 11.0344 10 11.2456 10C11.4569 10 11.6354 10.0719 11.7812 10.2156C11.9271 10.3594 12 10.5375 12 10.75V11.5C12 11.9125 11.853 12.2656 11.5591 12.5594C11.2652 12.8531 10.9119 13 10.4992 13H1.4941Z" fill="#66707A"/>
</svg>
