<svg width="41" height="41" viewBox="0 0 41 41" fill="none" xmlns="http://www.w3.org/2000/svg">
<path d="M9.2561 20.8675V13.2342C9.27877 11.7337 9.59728 10.2525 10.1934 8.87532C10.7895 7.49818 11.6515 6.2522 12.73 5.20876C13.8085 4.16534 15.0823 3.34496 16.4783 2.79466C17.8744 2.24436 19.3654 1.97493 20.8657 2.00183C22.3661 1.97493 23.8571 2.24436 25.2531 2.79466C26.6492 3.34496 27.923 4.16534 29.0015 5.20876C30.08 6.2522 30.942 7.49818 31.5382 8.87532C32.1341 10.2525 32.4527 11.7337 32.4754 13.2342V20.8675" stroke="black" stroke-width="2.5" stroke-linecap="round" stroke-linejoin="round"/>
<path d="M4.90241 16.5138H7.80482C8.18971 16.5138 8.55884 16.6667 8.83097 16.9389C9.10312 17.211 9.25602 17.5801 9.25602 17.965V26.6722C9.25602 27.0571 9.10312 27.4262 8.83097 27.6984C8.55884 27.9705 8.18971 28.1234 7.80482 28.1234H4.90241C4.13263 28.1234 3.3944 27.8176 2.8501 27.2733C2.30579 26.729 2 25.9908 2 25.221V19.4162C2 18.6464 2.30579 17.9082 2.8501 17.3639C3.3944 16.8196 4.13263 16.5138 4.90241 16.5138Z" stroke="black" stroke-width="2.5" stroke-linecap="round" stroke-linejoin="round"/>
<path d="M36.829 28.1234H33.9265C33.5417 28.1234 33.1725 27.9705 32.9003 27.6984C32.6283 27.4262 32.4753 27.0571 32.4753 26.6722V17.965C32.4753 17.5801 32.6283 17.211 32.9003 16.9389C33.1725 16.6667 33.5417 16.5138 33.9265 16.5138H36.829C37.5987 16.5138 38.337 16.8196 38.8812 17.3639C39.4255 17.9082 39.7314 18.6464 39.7314 19.4162V25.221C39.7314 25.9908 39.4255 26.729 38.8812 27.2733C38.337 27.8176 37.5987 28.1234 36.829 28.1234Z" stroke="black" stroke-width="2.5" stroke-linecap="round" stroke-linejoin="round"/>
<path d="M26.6704 36.105C28.2099 36.105 29.6863 35.4935 30.775 34.4048C31.8637 33.3161 32.4752 31.8396 32.4752 30.3002V23.7698" stroke="black" stroke-width="2.5" stroke-linecap="round" stroke-linejoin="round"/>
<path d="M26.6707 36.1051C26.6707 37.0672 26.2884 37.9902 25.608 38.6705C24.9277 39.3508 24.0049 39.7331 23.0427 39.7331H18.689C17.7268 39.7331 16.804 39.3508 16.1237 38.6705C15.4433 37.9902 15.061 37.0672 15.061 36.1051C15.061 35.1429 15.4433 34.2199 16.1237 33.5396C16.804 32.8593 17.7268 32.4771 18.689 32.4771H23.0427C24.0049 32.4771 24.9277 32.8593 25.608 33.5396C26.2884 34.2199 26.6707 35.1429 26.6707 36.1051Z" stroke="black" stroke-width="2.5" stroke-linecap="round" stroke-linejoin="round"/>
</svg>
