<svg width="44" height="44" viewBox="0 0 44 44" fill="none" xmlns="http://www.w3.org/2000/svg">
<g clip-path="url(#clip0_843_18609)">
<path d="M29.9853 16.7811C30 16.5158 30 16.2653 30 16C30 8.26316 23.7368 2 16 2C8.26316 2 2 8.26316 2 16C2 23.7368 8.26316 30 16 30C16.2505 30 16.5158 30 16.7663 29.9853C17.7684 29.9263 18.7411 29.7642 19.6695 29.4989C24.4589 28.2168 28 24.5 30 18" stroke="black" stroke-width="2.8" stroke-linecap="round" stroke-linejoin="round"/>
<path d="M37.6189 18L41.5 16.679L41 14.5L36.8984 12L35 12.5889L35.6236 16.679" stroke="black" stroke-width="2.8" stroke-linecap="round" stroke-linejoin="round"/>
<path d="M17 29.5C17.1768 28.5176 17 27 18.0758 24.3869C19.8736 20.4573 23.381 17.9794 27.242 17.2756C28.2146 17.0997 29.2167 17.041 30.2188 17.1143C30.7198 17.129 31.2209 17.1876 31.7219 17.2756C32.223 17.3636 32.7387 17.2316 33.0777 16.8651L33.9324 16L39.0313 18.9325L38.6924 20.0908C38.5597 20.5746 38.6924 21.0878 39.0166 21.4691C42.347 25.3692 43.0397 31.0729 40.3281 35.7648C36.8061 41.835 28.922 43.8438 22.8799 40.1342C19.3726 37.9642 17.2505 34.196 17 30.2518" stroke="black" stroke-width="2.8" stroke-linecap="round" stroke-linejoin="round"/>
</g>
<defs>
<clipPath id="clip0_843_18609">
<rect width="44" height="44" fill="white"/>
</clipPath>
</defs>
</svg>
