<svg width="40" height="40" viewBox="0 0 40 40" fill="none" xmlns="http://www.w3.org/2000/svg">
<path d="M21.3415 36.0916C22.7169 36.9772 24.3539 37.3654 25.9804 37.1916C27.607 37.0178 29.1252 36.2925 30.2822 35.1365L31.2904 34.1284C31.7377 33.6763 31.9884 33.0661 31.9884 32.4304C31.9884 31.7945 31.7377 31.1843 31.2904 30.7325L27.0456 26.514C26.5981 26.0685 25.9924 25.8183 25.3609 25.8183C24.7294 25.8183 24.1237 26.0685 23.6762 26.514C23.2242 26.9612 22.6141 27.212 21.9782 27.212C21.3424 27.212 20.7323 26.9612 20.2803 26.514L13.515 19.7487C13.0678 19.2967 12.817 18.6865 12.817 18.0507C12.817 17.4149 13.0678 16.8048 13.515 16.3528C13.9605 15.9053 14.2107 15.2995 14.2107 14.6681C14.2107 14.0366 13.9605 13.4309 13.515 12.9834L9.42926 8.73849C8.97729 8.29132 8.36713 8.04053 7.7313 8.04053C7.0955 8.04053 6.48535 8.29132 6.03334 8.73849L5.02518 9.74666C3.84831 10.8876 3.0983 12.3976 2.90035 14.0247C2.70238 15.6519 3.06845 17.2977 3.93744 18.6875C8.56365 25.5557 14.4733 31.4652 21.3415 36.0916Z" stroke="black" stroke-width="2.5" stroke-linecap="round" stroke-linejoin="round"/>
<path d="M37.1526 10.643H29.8622C29.5465 10.643 29.2908 10.3872 29.2908 10.0716C29.2908 9.93317 29.3409 9.79945 29.4322 9.69527L34.6324 3.75206C34.7351 3.6347 34.8834 3.56738 35.0394 3.56738C35.3382 3.56738 35.5801 3.8095 35.5801 4.10817V13.0016" stroke="black" stroke-width="2.3" stroke-linecap="round" stroke-linejoin="round"/>
<path d="M26.5109 13.0016H20.2214V11.6615C20.2214 10.7244 20.7761 9.87623 21.6346 9.50064L25.1344 7.9695C25.9706 7.60367 26.5109 6.77748 26.5109 5.86475C26.5109 4.59595 25.4824 3.56738 24.2135 3.56738H22.58C21.5531 3.56738 20.6794 4.22369 20.3556 5.13975" stroke="black" stroke-width="2.5" stroke-linecap="round" stroke-linejoin="round"/>
</svg>
