<svg width="148" height="16" viewBox="0 0 148 16" fill="none" xmlns="http://www.w3.org/2000/svg">
<g clip-path="url(#clip0_840_16896)">
<path d="M16.0719 13.5094C20.3992 12.6427 19.8513 9.41794 19.8513 9.41794C19.268 6.33139 15.7714 6.74888 15.7714 6.74888C16.7907 5.07603 16.499 3.64505 16.499 3.64505C15.5034 -0.155567 11.7593 -8.72295e-05 11.7593 -8.72295e-05C6.61605 0.0517393 5.479 7.59538 5.479 7.59538C2.6776 3.91857 0.388755 4.07693 0.388755 4.07693C-0.28582 4.05966 0.120693 4.37062 0.120693 4.37062C1.25775 4.54337 1.61124 5.79297 1.61124 5.79297C1.62891 6.41776 1.9117 6.31411 1.9117 6.31411C2.39186 6.19318 2.95744 6.34866 2.95744 6.34866C4.64241 6.83526 5.5821 9.27974 5.5821 9.27974C6.04458 10.3192 6.1683 12.922 6.1683 12.922C6.29497 14.5171 7.71482 14.4825 7.71482 14.4825C9.32908 14.4653 9.34676 13.233 9.34676 13.233L9.5942 10.4919C9.91234 7.5781 10.6046 5.93405 10.6046 5.93405C11.83 2.67186 13.7271 2.83022 13.7271 2.83022C15.6595 2.79567 15.5181 4.5808 15.5181 4.5808C15.5181 6.48687 13.4944 8.62039 13.4944 8.62039C16.9733 6.57324 16.7582 9.17321 16.7582 9.17321C16.882 11.5831 11.9861 13.4921 11.9861 13.4921C18.1928 13.9067 19.0648 15.8847 19.0648 15.8847C19.2238 16.092 19.4713 15.9538 19.4713 15.9538C19.5596 15.8156 20.1812 15.64 20.1812 15.64C20.517 15.5162 20.4463 15.4125 20.4463 15.4125C19.3976 14.0276 16.0631 13.5065 16.0631 13.5065" fill="#E31E25"/>
<path d="M25.6633 7.49769C25.6633 7.49769 25.6633 7.50345 25.6633 7.50633V7.62726C25.6633 8.58893 26.4616 9.36921 27.4455 9.36921H36.1914L39.0665 9.36633V2.06743C39.0665 2.06743 39.0665 2.0156 39.0606 1.94074V1.84572C39.0606 1.43111 38.7159 1.09424 38.2917 1.09424H36.6775C36.2533 1.09424 35.9086 1.42823 35.9086 1.84284C35.8851 1.97241 35.888 2.06743 35.888 2.06743V2.24306V3.06365H28.8418V2.06743C28.8418 2.06743 28.8477 1.94362 28.8094 1.78238C28.7711 1.42535 28.4795 1.14319 28.1112 1.11151C28.0464 1.1 27.9787 1.09424 27.9021 1.09424H26.603C26.5353 1.09424 26.4764 1.1 26.4174 1.10863C25.9991 1.11727 25.6633 1.44839 25.6633 1.86012V2.0156C25.6633 2.05015 25.6633 2.0703 25.6633 2.0703V7.50057V7.49769ZM28.8418 5.54556H35.888V6.8729H28.8418V5.54556Z" fill="#2B2E7D"/>
<path d="M38.8602 11.9919H33.9408V9.80371H30.7859V11.9919H25.8636C25.4394 11.9919 25.0947 12.3288 25.0947 12.7434V13.9844C25.0947 14.399 25.4394 14.7359 25.8636 14.7359H38.8572C39.2814 14.7359 39.6261 14.399 39.6261 13.9844V12.7434C39.6261 12.3288 39.2814 11.9919 38.8572 11.9919H38.8602Z" fill="#2B2E7D"/>
<path d="M55.2679 3.06082C55.2679 1.88609 54.2929 0.930176 53.0881 0.930176H51.6122C51.9098 1.09429 52.113 1.38798 52.113 1.73061V6.62821H45.4586V6.04085H51.1498V5.19435H51.1586V2.29206C51.1586 2.26615 51.1557 2.24024 51.1498 2.21432V1.8429C51.1498 1.42829 50.8051 1.09141 50.3809 1.09141H43.0755C42.6513 1.09141 42.3066 1.42829 42.3066 1.8429V2.50801C42.3066 2.92262 42.6513 3.25949 43.0755 3.25949H48.0037V3.86989H43.0755C42.6513 3.86989 42.3066 4.20676 42.3066 4.62138V6.62821V7.05722C42.3066 8.01889 43.1049 8.79917 44.0888 8.79917H52.116V9.33183H43.1992V9.65431V12.8445V13.3657C43.1992 14.1056 43.8119 14.7045 44.569 14.7045H55.2709V6.04373H56.5817V3.772H55.2709V3.05794L55.2679 3.06082ZM52.113 12.4731H46.3482V11.5633H52.113V12.4731Z" fill="#2B2E7D"/>
<path d="M72.6274 3.06065C72.6274 1.86577 71.6318 0.892578 70.4093 0.892578H68.7774L68.9129 0.967439C69.2133 1.13156 69.393 1.4166 69.393 1.73332V5.93991C67.7316 5.36981 66.0231 4.44845 65.8581 1.95502L65.8169 1.05382H62.4617L62.4175 1.99245C62.2349 4.47437 60.5116 5.38709 58.8473 5.95142C58.5439 6.05508 58.3111 6.27966 58.1963 6.58774C58.0755 6.91021 58.1049 7.273 58.2787 7.56092C58.5704 8.04464 59.1949 8.2577 59.9932 8.14253C62.3203 7.80566 63.8521 5.99461 64.1349 5.63183C64.4206 5.99173 65.9465 7.80566 68.2766 8.14253C68.6949 8.203 69.0778 8.17133 69.3871 8.05328V8.87098C68.3797 8.57154 67.2279 8.41606 66.0525 8.41606C62.4293 8.41606 59.4806 9.90176 59.4806 11.7272C59.4806 13.5526 62.4293 15.0383 66.0525 15.0383C69.6758 15.0383 72.5185 13.6275 72.6186 11.8251V11.7646C72.6186 11.7646 72.6216 11.7387 72.6216 11.7272C72.6216 11.7157 72.6216 11.7013 72.6216 11.6898V5.93415H73.9295V3.5818H72.6186V3.06641L72.6274 3.06065ZM66.1174 12.8933C64.509 12.8933 63.2011 12.3664 63.2011 11.7186C63.2011 11.0707 64.509 10.5438 66.1174 10.5438C67.7257 10.5438 69.0336 11.0707 69.0336 11.7186C69.0336 12.3664 67.7257 12.8933 66.1174 12.8933Z" fill="#2B2E7D"/>
<path d="M89.1705 11.8424H84.2865V9.44971H81.3201V11.8424H76.3064C75.8823 11.8424 75.5376 12.1792 75.5376 12.5939V13.8348C75.5376 14.2494 75.8823 14.5863 76.3064 14.5863H89.1705C89.5947 14.5863 89.9393 14.2494 89.9393 13.8348V12.5939C89.9393 12.1792 89.5947 11.8424 89.1705 11.8424Z" fill="#2B2E7D"/>
<path d="M76.9397 7.77951C76.2416 8.01561 75.9323 8.74118 76.2857 9.32855L76.3535 9.44371C76.7011 10.0167 77.4493 10.2211 78.1504 10.0455C81.1609 9.29399 82.7634 7.18926 82.8194 7.1144C83.3084 7.69313 84.9168 9.40053 87.3264 9.98789C88.0275 10.1578 88.7757 9.9591 89.1233 9.38613L89.191 9.27096C89.5445 8.68359 89.2352 7.9609 88.5371 7.72192C87.0966 7.23245 84.9403 6.70843 84.6723 3.94434V3.58732H88.1394C88.649 3.58732 89.0614 3.18422 89.0614 2.68611V1.97494C89.0614 1.47683 88.649 1.07373 88.1394 1.07373H77.3344C76.8248 1.07373 76.4124 1.47683 76.4124 1.97494V2.68611C76.4124 3.18422 76.8248 3.58732 77.3344 3.58732H80.9459V3.97314C80.6661 6.7113 78.3713 7.29291 76.9368 7.77951H76.9397Z" fill="#2B2E7D"/>
<path d="M129.027 1.43115C128.055 2.69802 127.021 4.63 127.006 7.60139C127.006 10.544 128.055 12.4731 129.027 13.7256H130.093C128.997 12.2168 128.149 10.2849 128.149 7.60139C128.149 4.91793 128.968 2.90821 130.093 1.43115H129.027Z" fill="#2B2E7D"/>
<path d="M145.979 1.4311H144.931C146.041 2.92543 146.875 4.85453 146.875 7.55527C146.875 10.256 146.026 12.2312 144.931 13.7255H145.979C146.966 12.4442 148 10.5267 148 7.56967C148 4.61267 146.966 2.6663 145.979 1.42822V1.4311Z" fill="#2B2E7D"/>
<path d="M143.947 8.4248H131.153C130.75 8.4248 130.42 8.7444 130.42 9.14174V10.3251C130.42 10.7224 130.747 11.042 131.153 11.042H136.076V14.1862H138.901V11.042H143.947C144.35 11.042 144.68 10.7224 144.68 10.3251V9.14174C144.68 8.74728 144.353 8.4248 143.947 8.4248Z" fill="#2B2E7D"/>
<path d="M132.075 5.81315C131.424 6.03485 131.2 6.81513 131.53 7.36218C131.854 7.89773 132.538 8.01865 133.204 7.92364C135.307 7.61844 136.747 6.11547 137.213 5.56265L137.233 5.60008C137.233 5.60008 137.392 5.41005 137.557 5.19411C137.616 5.27185 139.357 7.55797 141.899 7.92364C142.565 8.01865 143.251 7.89773 143.573 7.36218C143.902 6.81513 143.679 6.03197 143.028 5.81315C142.005 5.46476 140.55 4.89179 139.84 3.42049H142.671C143.181 3.42049 143.593 3.01739 143.593 2.51928V1.92904C143.593 1.43093 143.181 1.02783 142.671 1.02783H132.441C131.931 1.02783 131.519 1.43093 131.519 1.92904V2.51928C131.519 3.01739 131.931 3.42049 132.441 3.42049H135.271C134.562 4.89179 133.106 5.46764 132.084 5.81315H132.075Z" fill="#2B2E7D"/>
<path d="M110.996 8.14822H115.791L118.596 8.14534V1.89449C118.596 1.89449 118.596 1.84554 118.59 1.77068V1.67854C118.59 1.27257 118.254 0.944336 117.839 0.944336H116.266C115.853 0.944336 115.518 1.26969 115.515 1.67567C115.491 1.80235 115.494 1.89449 115.494 1.89449V2.06724V2.86768H112.357V1.89449C112.357 1.89449 112.363 1.77356 112.324 1.6152C112.286 1.26681 112.003 0.990404 111.644 0.961611C111.582 0.950094 111.514 0.944336 111.441 0.944336H110.174C110.109 0.944336 110.05 0.950094 109.991 0.958732C109.585 0.96737 109.258 1.28985 109.258 1.69006V1.83978C109.258 1.87145 109.258 1.89161 109.258 1.89161V6.3199C109.258 6.3199 109.258 6.32566 109.258 6.32854V6.44658C109.258 7.38522 110.035 8.14534 110.996 8.14534V8.14822ZM112.357 4.70752H115.491V5.71526H112.357V4.70752Z" fill="#2B2E7D"/>
<path d="M123.595 5.72954V3.5154H122.319V2.81862C122.319 1.67267 121.368 0.742676 120.195 0.742676H118.755C119.046 0.901035 119.244 1.18896 119.244 1.52295V8.54833H110.026C109.77 8.54833 109.564 8.74987 109.564 9.00037V9.93613C109.564 10.1866 109.77 10.3882 110.026 10.3882H119.079V10.8373H110.023C109.77 10.8373 109.564 11.0389 109.564 11.2865V13.4085C109.564 14.1485 110.177 14.7474 110.934 14.7474H122.319V12.9075H112.804V12.5159H122.319V8.99749C122.319 8.99749 122.319 8.98597 122.319 8.98021V5.73242H123.595V5.72954Z" fill="#2B2E7D"/>
<path d="M104.309 0.973399H102.866L102.986 1.04538C103.251 1.20662 103.41 1.48878 103.41 1.79686V3.64822V6.34896H102.727V2.986C102.727 1.83717 101.87 0.904297 100.815 0.904297H99.4072L99.5251 0.976278C99.7843 1.13464 99.9375 1.40817 99.9375 1.71049V3.51578V14.6239H102.724V8.67252H103.408V14.6153H106.268V3.1098C106.268 1.93219 105.387 0.976278 104.306 0.976278L104.309 0.973399Z" fill="#2B2E7D"/>
<path d="M98.2022 1.13184C98.2022 1.13184 93.5244 1.13184 93.5214 1.13184C92.5228 1.14623 92.5641 2.11654 92.5641 2.11654V2.53115C92.5641 2.53115 92.5317 3.46115 93.4655 3.51298L96.3788 3.52161V7.71093C96.3788 9.80414 94.6821 11.1833 92.8086 11.8916C92.6524 11.9492 92.4904 12.0183 92.3726 12.1363C92.2253 12.2832 92.2312 12.4991 92.2459 12.692C92.2901 13.2247 92.567 13.7286 92.9617 14.1086C93.0825 14.2238 93.218 14.3332 93.3771 14.3937C93.6039 14.48 93.7542 14.4109 93.9604 14.3361C94.0988 14.2843 94.2343 14.2296 94.3669 14.172C94.6379 14.0568 94.9059 13.9301 95.1652 13.7948C95.6895 13.5213 96.1903 13.2074 96.6557 12.8475C97.2743 12.3696 97.5247 12.0903 97.9489 11.4453C98.756 10.2101 99.1596 8.61501 99.1596 6.65712V2.11654C99.1596 2.11654 99.2008 1.14623 98.1993 1.13184H98.2022Z" fill="#2B2E7D"/>
</g>
<defs>
<clipPath id="clip0_840_16896">
<rect width="148" height="16" fill="white"/>
</clipPath>
</defs>
</svg>
